<?xml version="1.0" encoding="UTF-8"?><!DOCTYPE svg PUBLIC "-//W3C//DTD SVG 1.1//EN" "http://www.w3.org/Graphics/SVG/1.1/DTD/svg11.dtd"><svg xmlns="http://www.w3.org/2000/svg" xmlns:xlink="http://www.w3.org/1999/xlink"><defs></defs><symbol id="register" viewBox="0 0 26 29">
<path fill-rule="evenodd" clip-rule="evenodd" d="M5.18374 0H20.735C23.5979 0 25.9187 2.56037 25.9187 5.71875V22.875C25.9187 26.0334 23.5979 28.5938 20.735 28.5938H5.18374C2.32084 28.5938 0 26.0334 0 22.875V5.71875C0 2.56037 2.32084 0 5.18374 0ZM22.9434 25.3114C23.5291 24.6652 23.8582 23.7889 23.8582 22.875V5.71877C23.8582 4.80496 23.5291 3.92857 22.9434 3.2824C22.3577 2.63624 21.5633 2.27322 20.7349 2.27322H5.18364C3.45874 2.27322 2.06042 3.81585 2.06042 5.71877V22.875C2.06042 23.7889 2.38948 24.6652 2.97519 25.3114C3.56091 25.9576 4.35531 26.3206 5.18364 26.3206H20.7349C21.5633 26.3206 22.3577 25.9576 22.9434 25.3114Z" fill="#FAFBFF"></path>
<path d="M18.1431 13.2246H13.9312V8.57813C13.9312 7.98593 13.496 7.50586 12.9592 7.50586C12.4224 7.50586 11.9872 7.98593 11.9872 8.57813V13.2246H7.77533C7.23852 13.2246 6.80334 13.7047 6.80334 14.2969C6.80334 14.8891 7.23852 15.3691 7.77533 15.3691H11.9872V20.0156C11.9872 20.6078 12.4224 21.0879 12.9592 21.0879C13.496 21.0879 13.9312 20.6078 13.9312 20.0156V15.3691H18.1431C18.6799 15.3691 19.1151 14.8891 19.1151 14.2969C19.1151 13.7047 18.6799 13.2246 18.1431 13.2246Z" fill="#FAFBFF"></path>
</symbol><symbol id="search" viewBox="0 0 16 17">
<path d="M6.56617 14.605C7.98489 14.6046 9.36273 14.0807 10.4803 13.1165L13.994 16.9928L15.1241 15.746L11.6105 11.8697C12.4849 10.6366 12.9601 9.11624 12.9605 7.55068C12.9605 3.66114 10.0918 0.496414 6.56617 0.496414C3.04052 0.496414 0.171875 3.66114 0.171875 7.55068C0.171875 11.4402 3.04052 14.605 6.56617 14.605ZM6.56617 2.25998C9.21102 2.25998 11.3619 4.63286 11.3619 7.55068C11.3619 10.4685 9.21102 12.8414 6.56617 12.8414C3.92133 12.8414 1.77045 10.4685 1.77045 7.55068C1.77045 4.63286 3.92133 2.25998 6.56617 2.25998Z" fill="#3A4750"></path>
</symbol><symbol id="user" viewBox="0 0 16 18">
<path fill-rule="evenodd" clip-rule="evenodd" d="M3.75 4.5C3.75 2.15279 5.65279 0.25 8 0.25C10.3472 0.25 12.25 2.15279 12.25 4.5C12.25 6.84721 10.3472 8.75 8 8.75C5.65279 8.75 3.75 6.84721 3.75 4.5ZM8 1.75C6.48122 1.75 5.25 2.98122 5.25 4.5C5.25 6.01878 6.48122 7.25 8 7.25C9.51878 7.25 10.75 6.01878 10.75 4.5C10.75 2.98122 9.51878 1.75 8 1.75Z" fill="white"></path>
<path fill-rule="evenodd" clip-rule="evenodd" d="M4 11.75C2.75736 11.75 1.75 12.7574 1.75 14V15.1883C1.75 15.2064 1.76311 15.2218 1.78097 15.2247C5.89972 15.8972 10.1003 15.8972 14.219 15.2247C14.2369 15.2218 14.25 15.2064 14.25 15.1883V14C14.25 12.7574 13.2426 11.75 12 11.75H11.6591C11.6328 11.75 11.6066 11.7542 11.5815 11.7623L10.716 12.045C8.95119 12.6212 7.04881 12.6212 5.28398 12.045L4.41847 11.7623C4.39342 11.7542 4.36722 11.75 4.34087 11.75H4ZM0.25 14C0.25 11.9289 1.92893 10.25 4 10.25H4.34087C4.52536 10.25 4.70869 10.2792 4.88407 10.3364L5.74959 10.6191C7.21187 11.0965 8.78813 11.0965 10.2504 10.6191L11.1159 10.3364C11.2913 10.2792 11.4746 10.25 11.6591 10.25H12C14.0711 10.25 15.75 11.9289 15.75 14V15.1883C15.75 15.9415 15.2041 16.5837 14.4607 16.7051C10.1819 17.4037 5.8181 17.4037 1.53927 16.7051C0.795884 16.5837 0.25 15.9415 0.25 15.1883V14Z" fill="white"></path>
</symbol><symbol id="location" xmlns="http://www.w3.org/2000/svg" viewBox="0 0 20 20" fill="#c4c4c4" class="w-5 h-5">
    <path fill-rule="evenodd" d="M9.69 18.933l.003.001C9.89 19.02 10 19 10 19s.11.02.308-.066l.002-.001.006-.003.018-.008a5.741 5.741 0 00.281-.14c.186-.096.446-.24.757-.433.62-.384 1.445-.966 2.274-1.765C15.302 14.988 17 12.493 17 9A7 7 0 103 9c0 3.492 1.698 5.988 3.355 7.584a13.731 13.731 0 002.273 1.765 11.842 11.842 0 00.976.544l.062.029.018.008.006.003zM10 11.25a2.25 2.25 0 100-4.5 2.25 2.25 0 000 4.5z" clip-rule="evenodd"></path>
</symbol>


    <symbol id="view" class="svg-inline--fa fa-eye" aria-hidden="true" focusable="false" data-prefix="fas" data-icon="eye" role="img" xmlns="http://www.w3.org/2000/svg" viewBox="0 0 576 512" data-fa-i2svg=""><path fill="currentColor" d="M279.6 160.4C282.4 160.1 285.2 160 288 160C341 160 384 202.1 384 256C384 309 341 352 288 352C234.1 352 192 309 192 256C192 253.2 192.1 250.4 192.4 247.6C201.7 252.1 212.5 256 224 256C259.3 256 288 227.3 288 192C288 180.5 284.1 169.7 279.6 160.4zM480.6 112.6C527.4 156 558.7 207.1 573.5 243.7C576.8 251.6 576.8 260.4 573.5 268.3C558.7 304 527.4 355.1 480.6 399.4C433.5 443.2 368.8 480 288 480C207.2 480 142.5 443.2 95.42 399.4C48.62 355.1 17.34 304 2.461 268.3C-.8205 260.4-.8205 251.6 2.461 243.7C17.34 207.1 48.62 156 95.42 112.6C142.5 68.84 207.2 32 288 32C368.8 32 433.5 68.84 480.6 112.6V112.6zM288 112C208.5 112 144 176.5 144 256C144 335.5 208.5 400 288 400C367.5 400 432 335.5 432 256C432 176.5 367.5 112 288 112z"></path></symbol>


    <symbol id="heart" class="svg-inline--fa fa-heart" aria-hidden="true" focusable="false" data-prefix="far" data-icon="heart" role="img" xmlns="http://www.w3.org/2000/svg" viewBox="0 0 512 512" data-fa-i2svg=""><path fill="currentColor" d="M244 84L255.1 96L267.1 84.02C300.6 51.37 347 36.51 392.6 44.1C461.5 55.58 512 115.2 512 185.1V190.9C512 232.4 494.8 272.1 464.4 300.4L283.7 469.1C276.2 476.1 266.3 480 256 480C245.7 480 235.8 476.1 228.3 469.1L47.59 300.4C17.23 272.1 0 232.4 0 190.9V185.1C0 115.2 50.52 55.58 119.4 44.1C164.1 36.51 211.4 51.37 244 84C243.1 84 244 84.01 244 84L244 84zM255.1 163.9L210.1 117.1C188.4 96.28 157.6 86.4 127.3 91.44C81.55 99.07 48 138.7 48 185.1V190.9C48 219.1 59.71 246.1 80.34 265.3L256 429.3L431.7 265.3C452.3 246.1 464 219.1 464 190.9V185.1C464 138.7 430.4 99.07 384.7 91.44C354.4 86.4 323.6 96.28 301.9 117.1L255.1 163.9z"></path></symbol>


    <symbol id="compare" class="svg-inline--fa fa-code-compare" aria-hidden="true" focusable="false" data-prefix="fas" data-icon="code-compare" role="img" xmlns="http://www.w3.org/2000/svg" viewBox="0 0 512 512" data-fa-i2svg=""><path fill="currentColor" d="M320 488C320 497.5 314.4 506.1 305.8 509.9C297.1 513.8 286.1 512.2 279.9 505.8L199.9 433.8C194.9 429.3 192 422.8 192 416C192 409.2 194.9 402.7 199.9 398.2L279.9 326.2C286.1 319.8 297.1 318.2 305.8 322.1C314.4 325.9 320 334.5 320 344V384H336C371.3 384 400 355.3 400 320V153.3C371.7 140.1 352 112.8 352 80C352 35.82 387.8 0 432 0C476.2 0 512 35.82 512 80C512 112.8 492.3 140.1 464 153.3V320C464 390.7 406.7 448 336 448H320V488zM456 79.1C456 66.74 445.3 55.1 432 55.1C418.7 55.1 408 66.74 408 79.1C408 93.25 418.7 103.1 432 103.1C445.3 103.1 456 93.25 456 79.1zM192 24C192 14.52 197.6 5.932 206.2 2.076C214.9-1.78 225-.1789 232.1 6.161L312.1 78.16C317.1 82.71 320 89.2 320 96C320 102.8 317.1 109.3 312.1 113.8L232.1 185.8C225 192.2 214.9 193.8 206.2 189.9C197.6 186.1 192 177.5 192 168V128H176C140.7 128 112 156.7 112 192V358.7C140.3 371 160 399.2 160 432C160 476.2 124.2 512 80 512C35.82 512 0 476.2 0 432C0 399.2 19.75 371 48 358.7V192C48 121.3 105.3 64 176 64H192V24zM56 432C56 445.3 66.75 456 80 456C93.25 456 104 445.3 104 432C104 418.7 93.25 408 80 408C66.75 408 56 418.7 56 432z"></path></symbol>

    <symbol id="star" class="svg-inline--fa fa-star" aria-hidden="true" focusable="false" data-prefix="fas" data-icon="star" role="img" xmlns="http://www.w3.org/2000/svg" viewBox="0 0 576 512" data-fa-i2svg=""><path fill="#cac7c7" d="M381.2 150.3L524.9 171.5C536.8 173.2 546.8 181.6 550.6 193.1C554.4 204.7 551.3 217.3 542.7 225.9L438.5 328.1L463.1 474.7C465.1 486.7 460.2 498.9 450.2 506C440.3 513.1 427.2 514 416.5 508.3L288.1 439.8L159.8 508.3C149 514 135.9 513.1 126 506C116.1 498.9 111.1 486.7 113.2 474.7L137.8 328.1L33.58 225.9C24.97 217.3 21.91 204.7 25.69 193.1C29.46 181.6 39.43 173.2 51.42 171.5L195 150.3L259.4 17.97C264.7 6.954 275.9-.0391 288.1-.0391C300.4-.0391 311.6 6.954 316.9 17.97L381.2 150.3z"></path></symbol>
    <symbol id="instagram" class="svg-inline--fa fa-instagram store-ig" aria-hidden="true" focusable="false" data-prefix="fab" data-icon="instagram" role="img" xmlns="http://www.w3.org/2000/svg" viewBox="0 0 448 512" data-fa-i2svg=""><path fill="#007aff" d="M224.1 141c-63.6 0-114.9 51.3-114.9 114.9s51.3 114.9 114.9 114.9S339 319.5 339 255.9 287.7 141 224.1 141zm0 189.6c-41.1 0-74.7-33.5-74.7-74.7s33.5-74.7 74.7-74.7 74.7 33.5 74.7 74.7-33.6 74.7-74.7 74.7zm146.4-194.3c0 14.9-12 26.8-26.8 26.8-14.9 0-26.8-12-26.8-26.8s12-26.8 26.8-26.8 26.8 12 26.8 26.8zm76.1 27.2c-1.7-35.9-9.9-67.7-36.2-93.9-26.2-26.2-58-34.4-93.9-36.2-37-2.1-147.9-2.1-184.9 0-35.8 1.7-67.6 9.9-93.9 36.1s-34.4 58-36.2 93.9c-2.1 37-2.1 147.9 0 184.9 1.7 35.9 9.9 67.7 36.2 93.9s58 34.4 93.9 36.2c37 2.1 147.9 2.1 184.9 0 35.9-1.7 67.7-9.9 93.9-36.2 26.2-26.2 34.4-58 36.2-93.9 2.1-37 2.1-147.8 0-184.8zM398.8 388c-7.8 19.6-22.9 34.7-42.6 42.6-29.5 11.7-99.5 9-132.1 9s-102.7 2.6-132.1-9c-19.6-7.8-34.7-22.9-42.6-42.6-11.7-29.5-9-99.5-9-132.1s-2.6-102.7 9-132.1c7.8-19.6 22.9-34.7 42.6-42.6 29.5-11.7 99.5-9 132.1-9s102.7-2.6 132.1 9c19.6 7.8 34.7 22.9 42.6 42.6 11.7 29.5 9 99.5 9 132.1s2.7 102.7-9 132.1z"></path></symbol>

    <symbol id="whatsapp" class="svg-inline--fa fa-whatsapp store-wa" aria-hidden="true" focusable="false" data-prefix="fab" data-icon="whatsapp" role="img" xmlns="http://www.w3.org/2000/svg" viewBox="0 0 448 512" data-fa-i2svg=""><path fill="rgb(37, 211, 102)" d="M380.9 97.1C339 55.1 283.2 32 223.9 32c-122.4 0-222 99.6-222 222 0 39.1 10.2 77.3 29.6 111L0 480l117.7-30.9c32.4 17.7 68.9 27 106.1 27h.1c122.3 0 224.1-99.6 224.1-222 0-59.3-25.2-115-67.1-157zm-157 341.6c-33.2 0-65.7-8.9-94-25.7l-6.7-4-69.8 18.3L72 359.2l-4.4-7c-18.5-29.4-28.2-63.3-28.2-98.2 0-101.7 82.8-184.5 184.6-184.5 49.3 0 95.6 19.2 130.4 54.1 34.8 34.9 56.2 81.2 56.1 130.5 0 101.8-84.9 184.6-186.6 184.6zm101.2-138.2c-5.5-2.8-32.8-16.2-37.9-18-5.1-1.9-8.8-2.8-12.5 2.8-3.7 5.6-14.3 18-17.6 21.8-3.2 3.7-6.5 4.2-12 1.4-32.6-16.3-54-29.1-75.5-66-5.7-9.8 5.7-9.1 16.3-30.3 1.8-3.7 .9-6.9-.5-9.7-1.4-2.8-12.5-30.1-17.1-41.2-4.5-10.8-9.1-9.3-12.5-9.5-3.2-.2-6.9-.2-10.6-.2-3.7 0-9.7 1.4-14.8 6.9-5.1 5.6-19.4 19-19.4 46.3 0 27.3 19.9 53.7 22.6 57.4 2.8 3.7 39.1 59.7 94.8 83.8 35.2 15.2 49 16.5 66.6 13.9 10.7-1.6 32.8-13.4 37.4-26.4 4.6-13 4.6-24.1 3.2-26.4-1.3-2.5-5-3.9-10.5-6.6z"></path></symbol>

    <symbol id="telegram" class="svg-inline--fa fa-telegram store-telegram" aria-hidden="true" focusable="false" data-prefix="fab" data-icon="telegram" role="img" xmlns="http://www.w3.org/2000/svg" viewBox="0 0 496 512" data-fa-i2svg=""><path fill="rgb(34, 158, 217)" d="M248 8C111 8 0 119 0 256S111 504 248 504 496 392.1 496 256 384.1 8 248 8zM362.1 176.7c-3.732 39.22-19.88 134.4-28.1 178.3-3.476 18.58-10.32 24.82-16.95 25.42-14.4 1.326-25.34-9.517-39.29-18.66-21.83-14.31-34.16-23.22-55.35-37.18-24.49-16.14-8.612-25 5.342-39.5 3.652-3.793 67.11-61.51 68.33-66.75 .153-.655 .3-3.1-1.154-4.384s-3.59-.849-5.135-.5q-3.283 .746-104.6 69.14-14.85 10.19-26.89 9.934c-8.855-.191-25.89-5.006-38.55-9.123-15.53-5.048-27.88-7.717-26.8-16.29q.84-6.7 18.45-13.7 108.4-47.25 144.6-62.3c68.87-28.65 83.18-33.62 92.51-33.79 2.052-.034 6.639 .474 9.61 2.885a10.45 10.45 0 0 1 3.53 6.716A43.76 43.76 0 0 1 362.1 176.7z"></path></symbol>


    <symbol id="department" width="18" height="12" viewBox="0 0 18 12" fill="none" xmlns="http://www.w3.org/2000/svg">
        <path d="M3 7H15V5H3V7ZM0 0V2H18V0H0ZM7 12H11V10H7V12Z" fill="#2264D1"></path>
    </symbol>

    <symbol id="chevLeft" xmlns="http://www.w3.org/2000/svg" width="12" height="21" viewBox="0 0 12 21" fill="#000">
  <path d="M11.3782 3.46556L4.43235 10.7367L11.7234 17.6616L10.3688 20.5354L0.161263 10.8405L9.8855 0.660976L11.3782 3.46556Z" fill="#000"></path>
</symbol>

<symbol id="chevRight" xmlns="http://www.w3.org/2000/svg" width="12" height="20" viewBox="0 0 12 20" fill="#000">
  <path d="M0 17.0403L7.12059 9.94023L0 2.84013L1.42412 9.15527e-05L11.3929 9.94023L1.42412 19.8804L0 17.0403Z" fill="#000"></path>
</symbol>

</svg>